<?xml version="1.0" encoding="UTF-8" standalone="no"?>
<svg
   xmlns:dc="http://purl.org/dc/elements/1.1/"
   xmlns:cc="http://creativecommons.org/ns#"
   xmlns:rdf="http://www.w3.org/1999/02/22-rdf-syntax-ns#"
   xmlns:svg="http://www.w3.org/2000/svg"
   xmlns="http://www.w3.org/2000/svg"
   xmlns:sodipodi="http://sodipodi.sourceforge.net/DTD/sodipodi-0.dtd"
   xmlns:inkscape="http://www.inkscape.org/namespaces/inkscape"
   sodipodi:docname="File Archive.svg"
   inkscape:version="1.0 (4035a4fb49, 2020-05-01)"
   id="svg831"
   version="1.1"
   viewBox="0 0 22.577778 22.577778"
   height="64pt"
   width="64pt"
   inkscape:export-filename="D:\Project ++\Filled Line\png\Brush Paint.png"
   inkscape:export-xdpi="576"
   inkscape:export-ydpi="576">
  <defs
     id="defs825">
    <pattern
       y="0"
       x="0"
       height="6"
       width="6"
       patternUnits="userSpaceOnUse"
       id="EMFhbasepattern" />
    <pattern
       y="0"
       x="0"
       height="6"
       width="6"
       patternUnits="userSpaceOnUse"
       id="EMFhbasepattern-9" />
    <pattern
       y="0"
       x="0"
       height="6"
       width="6"
       patternUnits="userSpaceOnUse"
       id="EMFhbasepattern-0" />
    <pattern
       y="0"
       x="0"
       height="6"
       width="6"
       patternUnits="userSpaceOnUse"
       id="EMFhbasepattern-7" />
    <pattern
       y="0"
       x="0"
       height="6"
       width="6"
       patternUnits="userSpaceOnUse"
       id="EMFhbasepattern-2" />
    <pattern
       y="0"
       x="0"
       height="6"
       width="6"
       patternUnits="userSpaceOnUse"
       id="EMFhbasepattern-98" />
    <pattern
       y="0"
       x="0"
       height="6"
       width="6"
       patternUnits="userSpaceOnUse"
       id="EMFhbasepattern-6" />
    <pattern
       y="0"
       x="0"
       height="6"
       width="6"
       patternUnits="userSpaceOnUse"
       id="EMFhbasepattern-01" />
    <pattern
       y="0"
       x="0"
       height="6"
       width="6"
       patternUnits="userSpaceOnUse"
       id="EMFhbasepattern-07" />
    <pattern
       y="0"
       x="0"
       height="6"
       width="6"
       patternUnits="userSpaceOnUse"
       id="EMFhbasepattern-8" />
    <pattern
       y="0"
       x="0"
       height="6"
       width="6"
       patternUnits="userSpaceOnUse"
       id="EMFhbasepattern-4" />
    <pattern
       y="0"
       x="0"
       height="6"
       width="6"
       patternUnits="userSpaceOnUse"
       id="EMFhbasepattern-40" />
    <pattern
       y="0"
       x="0"
       height="6"
       width="6"
       patternUnits="userSpaceOnUse"
       id="EMFhbasepattern-08" />
    <pattern
       y="0"
       x="0"
       height="6"
       width="6"
       patternUnits="userSpaceOnUse"
       id="EMFhbasepattern-04" />
    <pattern
       y="0"
       x="0"
       height="6"
       width="6"
       patternUnits="userSpaceOnUse"
       id="EMFhbasepattern-014" />
    <pattern
       y="0"
       x="0"
       height="6"
       width="6"
       patternUnits="userSpaceOnUse"
       id="EMFhbasepattern-27" />
    <pattern
       y="0"
       x="0"
       height="6"
       width="6"
       patternUnits="userSpaceOnUse"
       id="EMFhbasepattern-09" />
    <pattern
       y="0"
       x="0"
       height="6"
       width="6"
       patternUnits="userSpaceOnUse"
       id="EMFhbasepattern-5" />
    <pattern
       y="0"
       x="0"
       height="6"
       width="6"
       patternUnits="userSpaceOnUse"
       id="EMFhbasepattern-018" />
  </defs>
  <sodipodi:namedview
     inkscape:document-rotation="0"
     inkscape:snap-global="true"
     inkscape:snap-nodes="false"
     inkscape:bbox-nodes="true"
     inkscape:snap-bbox="true"
     showguides="true"
     inkscape:snap-midpoints="true"
     inkscape:snap-smooth-nodes="true"
     inkscape:snap-intersection-paths="true"
     inkscape:object-paths="true"
     inkscape:showpageshadow="false"
     inkscape:pagecheckerboard="true"
     inkscape:window-maximized="1"
     inkscape:window-y="-8"
     inkscape:window-x="-8"
     inkscape:window-height="706"
     inkscape:window-width="1366"
     units="pt"
     showgrid="false"
     inkscape:current-layer="layer1"
     inkscape:document-units="pt"
     inkscape:cy="42.56527"
     inkscape:cx="42.682208"
     inkscape:zoom="4.2757863"
     inkscape:pageshadow="2"
     inkscape:pageopacity="0.0"
     borderopacity="1.0"
     bordercolor="#666666"
     pagecolor="#ffffff"
     id="base">
    <inkscape:grid
       id="grid1378"
       type="xygrid" />
    <sodipodi:guide
       inkscape:locked="false"
       id="guide1380"
       orientation="78.000048,0"
       position="0.97013831,21.607643" />
    <sodipodi:guide
       inkscape:locked="false"
       id="guide1382"
       orientation="0,78.000005"
       position="0.97013831,0.97013129" />
    <sodipodi:guide
       inkscape:locked="false"
       id="guide1384"
       orientation="-78.000048,0"
       position="21.607639,0.97013129" />
    <sodipodi:guide
       inkscape:locked="false"
       id="guide1386"
       orientation="0,-78.000005"
       position="21.607639,21.607643" />
  </sodipodi:namedview>
  <metadata
     id="metadata828">
    <rdf:RDF>
      <cc:Work
         rdf:about="">
        <dc:format>image/svg+xml</dc:format>
        <dc:type
           rdf:resource="http://purl.org/dc/dcmitype/StillImage" />
        <dc:title></dc:title>
      </cc:Work>
    </rdf:RDF>
  </metadata>
  <g
     transform="translate(0,-274.42223)"
     id="layer1"
     inkscape:groupmode="layer"
     inkscape:label="Icon">
    <g
       transform="matrix(1.2579746,0,0,1.2579746,-37.733936,-192.37252)"
       style="display:inline;stroke-width:0.794929"
       id="g1866">
      <g
         style="stroke-width:0.794929"
         id="g1849">
        <g
           style="stroke-width:0.794929"
           id="g124265">
          <path
             style="color:#000000;fill:#3a4b58;stroke-width:0.794929;stroke-linecap:round;stroke-linejoin:round;stroke-miterlimit:1.5"
             d="m 42.841797,375.52539 a 0.26460996,0.26460996 0 0 0 -0.25586,0.33203 l 0.859375,3.20703 a 0.26460996,0.26460996 0 0 0 0.25586,0.19727 h 2.21289 a 0.26460996,0.26460996 0 0 0 0.265625,-0.26563 v -3.20703 a 0.26460996,0.26460996 0 0 0 -0.265625,-0.26367 h -0.71875 z"
             id="path111311" />
          <path
             style="color:#000000;clip-rule:evenodd;fill:#eb305d;fill-rule:evenodd;stroke-width:0.794929;stroke-linecap:round;stroke-linejoin:round;stroke-miterlimit:1.5"
             d="m 40.710937,371.83984 c -0.321482,0 -0.58789,0.26836 -0.58789,0.58985 v 0.26172 l -2.853516,-0.002 a 0.26460996,0.26460996 0 0 0 -0.208984,0.10157 l -1.134766,1.46093 a 0.26460996,0.26460996 0 0 0 -0.05664,0.16211 v 4.78516 a 0.26460996,0.26460996 0 0 0 0.265625,0.26367 h 9.058593 a 0.26460996,0.26460996 0 0 0 0.265625,-0.26367 c 0,0 0.0032,-5.0789 0.01172,-6.76953 0,-0.32149 -0.266408,-0.58985 -0.587891,-0.58985 z"
             id="path111319" />
          <path
             id="path52435"
             style="clip-rule:evenodd;fill:#b31e48;fill-opacity:1;fill-rule:evenodd;stroke-width:3.00446;stroke-linecap:round;stroke-linejoin:round;stroke-miterlimit:1.5"
             d="m 147.43945,353.04492 c -1.99788,0 -3.39362,1.43897 -4.03125,3.21875 l -7.77539,-0.006 a 1.0001006,1.0001006 0 0 0 -0.0644,0.33008 v 18.08594 a 1.0001006,1.0001006 0 0 0 1.00391,0.99609 h 31.20507 c 0.006,-6.69354 0.0143,-13.86954 0.0352,-17.99609 a 2.3850356,2.3850356 0 0 0 0,-0.002 2.3850356,2.3850356 0 0 0 0,-0.002 2.3850356,2.3850356 0 0 0 0,-0.002 2.3850356,2.3850356 0 0 0 0,-0.002 2.3850356,2.3850356 0 0 0 0,-0.002 2.3850356,2.3850356 0 0 0 0,-0.002 2.3850356,2.3850356 0 0 0 0,-0.002 2.3850356,2.3850356 0 0 0 0,-0.002 c 0,-2.53254 -2.06522,-4.61328 -4.60742,-4.61328 z"
             transform="matrix(0.26458334,0,0,0.26458334,0,280.06666)" />
          <path
             style="color:#000000;clip-rule:evenodd;fill:#2bb3cd;fill-rule:evenodd;stroke-width:0.794929;stroke-linecap:round;stroke-linejoin:round;stroke-miterlimit:1.5"
             d="m 39.009766,374.10742 c -0.321483,0 -0.587891,0.26836 -0.587891,0.58985 v 0.26171 l -2.853516,-0.002 a 0.26460996,0.26460996 0 0 0 -0.208984,0.10156 l -1.134766,1.46094 a 0.26460996,0.26460996 0 0 0 -0.05469,0.16211 v 5.375 a 0.26460996,0.26460996 0 0 0 0.263672,0.26563 h 9.058593 a 0.26460996,0.26460996 0 0 0 0.265625,-0.26368 c 0.002,-1.69323 0.0032,-5.67033 0.01172,-7.36132 0,-0.32149 -0.266408,-0.58985 -0.58789,-0.58985 z"
             id="path111327" />
          <path
             id="path38305"
             style="clip-rule:evenodd;fill:#1e65a4;fill-opacity:1;fill-rule:evenodd;stroke-width:3.00446;stroke-linecap:round;stroke-linejoin:round;stroke-miterlimit:1.5"
             d="m 140.47656,361.14258 c -2.06468,0 -3.5099,1.42946 -4.30273,3.21094 l -6.66602,-0.004 -0.15429,0.19727 a 1.0001006,1.0001006 0 0 0 -0.20704,0.61132 v 20.31641 a 1.0001006,1.0001006 0 0 0 0.9961,1.00391 h 31.13281 c 0.004,-3.34989 0.0211,-14.71091 0.0488,-20.23438 a 2.8541593,2.8541593 0 0 0 0,-0.002 2.8541593,2.8541593 0 0 0 0,-0.002 2.8541593,2.8541593 0 0 0 0,-0.002 2.8541593,2.8541593 0 0 0 0,-0.002 c 2e-5,-0.008 1e-5,-0.008 0,-0.0156 v -0.006 c -0.004,-2.79987 -2.29674,-5.07226 -5.08594,-5.07226 z"
             transform="matrix(0.26458334,0,0,0.26458334,0,280.06666)" />
          <path
             style="color:#000000;clip-rule:evenodd;fill:#fed883;fill-rule:evenodd;stroke-width:0.794929;stroke-linecap:round;stroke-linejoin:round;stroke-miterlimit:1.5"
             d="m 37.167969,376.375 c -0.321483,0 -0.589844,0.2664 -0.589844,0.58789 v 0.26172 l -2.853516,-0.002 a 0.26460996,0.26460996 0 0 0 -0.208984,0.10351 l -1.132813,1.46094 a 0.26460996,0.26460996 0 0 0 -0.05664,0.16211 v 4.00195 a 0.26460996,0.26460996 0 0 0 0.265625,0.26367 h 9.058594 a 0.26460996,0.26460996 0 0 0 0.263671,-0.26367 c 0,0 0.0052,-4.29529 0.01367,-5.98633 a 0.26460996,0.26460996 0 0 0 0,-0.002 c 0,-0.32149 -0.268361,-0.58789 -0.589843,-0.58789 z"
             id="path111335" />
          <path
             style="color:#000000;clip-rule:evenodd;fill:#143441;fill-rule:evenodd;stroke-width:0.794929;stroke-linecap:round;stroke-linejoin:round;stroke-miterlimit:1.5"
             d="m 46.011719,375.54297 a 0.26460996,0.26460996 0 0 0 -0.289063,0.0644 l -4.820312,5.10352 a 0.26460996,0.26460996 0 0 0 -0.07227,0.18164 v 7.08594 a 0.26460996,0.26460996 0 0 0 0.457031,0.18359 l 4.81836,-5.05469 a 0.26460996,0.26460996 0 0 0 0.07422,-0.18359 v -7.13477 a 0.26460996,0.26460996 0 0 0 -0.167968,-0.24609 z"
             id="path111357" />
          <path
             style="color:#000000;fill:#3a4b58;stroke-width:0.794929;stroke-linecap:round;stroke-linejoin:round;stroke-miterlimit:1.5"
             d="m 32.023437,380.62695 a 0.26460996,0.26460996 0 0 0 -0.263671,0.26563 v 7.08594 a 0.26460996,0.26460996 0 0 0 0.263671,0.26562 h 9.072266 a 0.26460996,0.26460996 0 0 0 0.263672,-0.26562 v -7.08594 a 0.26460996,0.26460996 0 0 0 -0.263672,-0.26563 z"
             id="path111343" />
          <path
             style="color:#000000;fill:#f5f6e8;stroke-width:0.794926;stroke-linecap:round;stroke-linejoin:round;stroke-miterlimit:1.5"
             d="m 43.344357,380.3542 a 0.21688028,0.21688028 0 0 0 -0.236923,0.048 l -0.928478,0.92848 a 0.21688028,0.21688028 0 0 0 -0.06404,0.15368 v 1.1622 a 0.21688028,0.21688028 0 0 0 0.369791,0.15208 l 0.930079,-0.92848 a 0.21688028,0.21688028 0 0 0 0.06404,-0.15368 v -1.1622 a 0.21688028,0.21688028 0 0 0 -0.134469,-0.2001 z"
             id="path111365" />
          <path
             id="path68237"
             style="color:#000000;clip-rule:evenodd;fill:#0e243a;fill-opacity:1;fill-rule:evenodd;stroke-width:0.794929;stroke-linecap:round;stroke-linejoin:round;stroke-miterlimit:1.5"
             d="m 45.935218,375.52543 a 0.26460996,0.26460996 0 0 0 -0.212389,0.0822 l -4.820378,5.10305 a 0.26460996,0.26460996 0 0 0 -0.07235,0.1819 v 0.92191 l 4.363559,-4.61936 a 0.26460996,0.26460996 0 0 1 0.288869,-0.0646 0.26460996,0.26460996 0 0 1 0.16795,0.24598 v 6.2084 l 0.455268,-0.47749 a 0.26460996,0.26460996 0 0 0 0.0739,-0.18345 v -7.13496 a 0.26460996,0.26460996 0 0 0 -0.167949,-0.24598 0.26460996,0.26460996 0 0 0 -0.07648,-0.0176 z" />
          <path
             id="path74084"
             style="fill:#0e243a;fill-opacity:1;stroke:none;stroke-width:1.58986;stroke-linecap:round;stroke-linejoin:round;stroke-miterlimit:1.5"
             d="m 157.41016,377.40234 -2.81836,2.98438 a 1.0001006,1.0001006 0 0 0 -0.27344,0.6875 v 26.78125 a 1.0001006,1.0001006 0 0 0 1.72656,0.69336 l 2.38672,-2.50391 v -27.1289 z"
             transform="matrix(0.26458334,0,0,0.26458334,0,280.06666)" />
          <path
             id="path64672"
             style="color:#000000;fill:#143441;fill-opacity:1;stroke-width:0.794929;stroke-linecap:round;stroke-linejoin:round;stroke-miterlimit:1.5"
             d="m 32.023672,380.62699 c -0.146323,3e-4 -0.264626,0.1193 -0.264067,0.26562 v 0.79272 c 7.950761,0 8.541597,1.52946 8.541597,6.55877 h 0.794269 c 0.146322,-3e-4 0.264623,-0.1193 0.264064,-0.26562 v -7.08587 c 5.59e-4,-0.14632 -0.117742,-0.26532 -0.264064,-0.26562 z"
             sodipodi:nodetypes="ccccccccc" />
        </g>
        <path
           id="path122942"
           style="color:#000000;clip-rule:evenodd;display:inline;fill:#000000;fill-rule:evenodd;stroke-width:0.794929;stroke-linecap:round;stroke-linejoin:round;stroke-miterlimit:1.5"
           d="m 46.179635,375.7884 c 0,-0.16139 -0.119835,-0.26315 -0.265655,-0.26315 h -0.453718 c 0.0016,-1.00261 0.0039,-1.82504 0.01035,-3.09594 0,-0.32149 -0.266079,-0.58962 -0.587561,-0.58962 l -4.172352,1.8e-4 c -0.321482,0 -0.587563,0.26814 -0.587563,0.58963 v 0.262 l -2.853571,-0.002 c -0.08156,-5e-5 -0.158591,0.0375 -0.208772,0.10181 l -1.134816,1.46089 c -0.03637,0.0461 -0.05637,0.10302 -0.05684,0.16174 v 0.54312 H 35.56838 c -0.08156,-5e-5 -0.158591,0.0375 -0.208772,0.10181 l -1.134814,1.46089 c -0.03563,0.0464 -0.0549,0.10326 -0.05478,0.16175 v 0.54157 l -0.44545,-5.3e-4 c -0.08192,5.3e-4 -0.159012,0.0388 -0.208772,0.10387 l -1.132747,1.46089 c -0.03637,0.0461 -0.05637,0.10302 -0.05685,0.16175 v 1.67793 h -0.302824 c -0.146118,5.3e-4 -0.264107,0.1195 -0.263549,0.26562 v 7.08587 c -5.29e-4,0.14612 0.117431,0.26503 0.263549,0.26562 h 9.072317 c 0.04369,-1.9e-4 0.08666,-0.0112 0.125055,-0.032 1.78e-4,0 2.65e-4,0 5.29e-4,0 1.78e-4,-1.8e-4 2.65e-4,-2.7e-4 5.3e-4,-5.3e-4 0.02416,-0.0131 0.04611,-0.0298 0.06511,-0.0496 l 4.818827,-5.05499 c 0.04742,-0.0493 0.0739,-0.11505 0.0739,-0.18345 0,-2.37832 0,-4.75664 0,-7.13496 z m -5.46894,-3.41936 h 4.172355 c 0.03749,0 0.05839,0.0231 0.05839,0.0605 -0.0061,1.54625 -0.01035,2.67526 -0.01193,4.0179 l -1.170472,1.2392 c 0.0016,-1.03706 0.0034,-1.60542 0.01035,-2.98948 0,-0.32149 -0.266078,-0.58962 -0.58756,-0.58962 h -4.171839 c -0.321482,0 -0.588076,0.26813 -0.588076,0.58962 v 0.262 l -2.02365,-0.002 v -0.45373 l 0.99994,-1.28519 2.988448,0.002 c 0.146925,5.3e-4 0.266173,-0.11869 0.265615,-0.26562 v -0.52555 c 0,-0.0375 0.0209,-0.0605 0.0584,-0.0605 z m -1.701189,2.26756 h 4.172355 c 0.03749,0 0.05839,0.0231 0.05839,0.0605 -0.0083,1.64172 -0.0099,1.98494 -0.01188,3.55121 l -1.313098,1.39009 c 0.0021,-1.00746 0.0053,-1.26319 0.01241,-2.67373 v -5.3e-4 -5.3e-4 -5.3e-4 c 0,-0.32149 -0.268147,-0.58808 -0.589629,-0.58808 h -4.170289 c -0.321482,0 -0.589627,0.26659 -0.589627,0.58808 v 0.26148 l -1.878957,-0.002 v -0.45165 l 0.997874,-1.28519 2.988447,0.002 c 0.146929,5.3e-4 0.266179,-0.11869 0.265618,-0.26562 v -0.52555 c 0,-0.0375 0.0209,-0.0605 0.05839,-0.0605 z m 6.640939,1.81798 v 6.36343 l -4.291211,4.50154 v -6.3221 c 1.430819,-1.5139 2.859971,-3.02937 4.291211,-4.54287 z m -8.482688,0.44958 h 4.170289 c 0.03749,0 0.06046,0.0214 0.06046,0.0589 -0.0082,1.63878 -0.01,1.69953 -0.01188,3.23495 l -0.405146,0.42891 h -8.126119 v -1.58801 l 0.99994,-1.28727 c 0.996092,0.003 1.990495,10e-4 2.988453,0.002 0.145314,-5.3e-4 0.262972,-0.11824 0.263551,-0.26355 v -0.5271 c 0,-0.0375 0.02297,-0.0589 0.06046,-0.0589 z m 6.18257,3.1564 c -0.06592,0.003 -0.128215,0.0311 -0.174668,0.078 l -1.132747,1.13275 c -0.04993,0.0496 -0.07802,0.11716 -0.07803,0.18758 v 1.418 c 0.0019,0.23431 0.284946,0.3507 0.451136,0.18552 l 1.134814,-1.13274 c 0.04993,-0.0497 0.07802,-0.11717 0.07803,-0.18759 v -1.418 c -2.64e-4,-0.10694 -0.06494,-0.20318 -0.163814,-0.24391 -0.03631,-0.015 -0.0755,-0.0217 -0.11472,-0.0196 z m -0.250632,0.90227 v 0.66973 l -0.605647,0.60564 v -0.66972 z m -10.810709,0.19327 h 8.541081 v 6.55877 h -8.541081 z m 2.316139,2.58589 c -0.03455,0.003 -0.06826,0.0119 -0.09922,0.0274 -0.130638,0.0657 -0.183179,0.22497 -0.117306,0.35553 l 0.413928,0.81856 c 0.0454,0.0888 0.136914,0.14457 0.236678,0.14417 h 3.271118 c 0.09511,2.7e-4 0.183104,-0.0503 0.230478,-0.13281 l 0.470771,-0.81597 c 0.07348,-0.12629 0.03068,-0.28824 -0.0956,-0.36173 -0.06078,-0.0353 -0.133104,-0.045 -0.20102,-0.0269 -0.06756,0.0182 -0.125161,0.0624 -0.160197,0.12299 l -0.396359,0.68523 h -2.957442 l -0.339513,-0.6718 c -0.04825,-0.0957 -0.149458,-0.15282 -0.256315,-0.14469 z"
           sodipodi:nodetypes="ccccccscccccccccccccccccccccccccccccsccccsssccccccscccscccsccssssccccccsccccccccsccccccccsccsccccccccsssccccccccccccccccccccccccc" />
      </g>
    </g>
  </g>
</svg>
