<?xml version="1.0" standalone="no"?>
<!DOCTYPE svg PUBLIC "-//W3C//DTD SVG 20010904//EN"
 "http://www.w3.org/TR/2001/REC-SVG-20010904/DTD/svg10.dtd">
<svg version="1.0" xmlns="http://www.w3.org/2000/svg"
 width="949.000000pt" height="1133.000000pt" viewBox="0 0 949.000000 1133.000000"
 preserveAspectRatio="xMidYMid meet">

<g transform="translate(0.000000,1133.000000) scale(0.100000,-0.100000)"
fill="#000000" stroke="none">
<path d="M4655 10993 c-328 -20 -713 -91 -1110 -204 -253 -72 -366 -112 -429
-154 -115 -76 -215 -217 -251 -355 -12 -46 -15 -180 -15 -810 0 -514 4 -768
11 -794 13 -48 59 -96 91 -96 36 1 99 34 138 72 49 48 204 158 332 234 382
227 788 372 1158 415 147 16 422 7 580 -21 325 -57 685 -196 1018 -394 127
-76 279 -183 343 -242 85 -78 159 -80 203 -4 21 34 21 50 24 800 2 545 0 781
-8 820 -21 102 -86 217 -170 300 -93 93 -138 116 -361 184 -588 182 -1162 273
-1554 249z m313 -309 c21 -14 22 -19 22 -174 l0 -160 159 0 c132 0 162 -3 175
-16 13 -13 16 -44 16 -179 0 -208 13 -195 -197 -195 l-153 0 0 -160 c0 -202
11 -191 -191 -190 -201 2 -189 -10 -189 190 l0 160 -153 0 c-210 0 -197 -12
-197 192 0 136 3 164 17 180 14 16 34 18 175 18 l158 0 0 158 c0 86 5 164 10
172 18 29 303 32 348 4z"/>
<path d="M4590 8976 c-280 -36 -600 -146 -894 -307 -136 -74 -321 -196 -386
-254 -68 -60 -129 -101 -191 -127 -78 -32 -243 -32 -312 0 -78 35 -143 89
-186 152 l-39 59 -35 -97 c-157 -436 -237 -900 -256 -1487 -6 -195 -4 -247 11
-345 46 -306 86 -676 108 -1005 13 -196 13 -677 0 -841 -26 -335 -87 -599
-181 -787 -26 -52 -108 -161 -131 -176 -10 -6 -73 -23 -140 -37 -68 -14 -150
-34 -183 -44 -571 -175 -1006 -678 -1305 -1510 -85 -239 -110 -339 -119 -485
-13 -197 17 -349 96 -495 150 -275 512 -499 1078 -665 88 -25 189 -55 224 -66
35 -10 72 -19 80 -19 9 0 66 -11 126 -25 1355 -303 3722 -337 5300 -75 219 37
527 103 541 117 8 8 19 11 25 7 8 -4 9 -3 5 4 -5 8 2 10 23 6 45 -9 367 87
590 175 299 120 562 305 675 475 106 160 163 399 136 571 -6 39 -15 97 -19
130 -5 33 -25 110 -44 170 -186 585 -416 996 -723 1296 -262 254 -482 366
-877 446 -89 17 -89 18 -133 73 -164 206 -252 559 -273 1092 -18 453 19 1012
106 1593 23 157 25 188 20 405 -11 422 -64 832 -153 1180 -27 104 -121 391
-133 402 -4 4 -26 -19 -50 -52 -86 -118 -211 -177 -358 -167 -71 4 -96 11
-166 45 -47 23 -110 65 -147 98 -36 31 -111 88 -168 126 -519 342 -1079 503
-1542 444z m-446 -1135 c207 -107 994 -512 1546 -796 544 -280 711 -366 769
-397 l54 -29 56 53 c30 29 58 55 61 58 3 3 27 25 52 49 47 44 47 44 73 27 39
-26 74 -111 86 -211 30 -246 -78 -605 -210 -692 -35 -24 -95 -31 -106 -13 -12
20 -22 9 -39 -47 -30 -95 -103 -270 -170 -403 -199 -397 -474 -739 -761 -945
-113 -82 -323 -187 -437 -219 -358 -102 -712 -28 -1062 222 -107 77 -310 274
-409 397 -200 250 -368 549 -488 865 -46 123 -54 138 -70 129 -101 -54 -234
119 -295 386 -14 59 -19 119 -19 230 1 132 4 157 23 207 29 72 73 112 116 105
17 -3 41 -8 54 -12 20 -7 22 -4 22 23 0 107 91 431 164 585 112 236 289 415
478 483 69 25 167 42 247 43 l74 1 191 -99z m-847 -3451 c47 0 115 -66 134
-128 23 -80 -17 -168 -96 -209 -18 -10 -74 -19 -140 -23 -79 -6 -129 -15 -178
-34 -200 -75 -400 -281 -472 -486 -13 -36 -12 -39 16 -66 17 -16 44 -50 60
-76 17 -27 35 -48 39 -48 5 0 48 -27 97 -59 167 -112 330 -308 449 -541 46
-90 49 -100 50 -175 0 -64 8 -103 37 -192 79 -247 101 -406 94 -698 -5 -240
-17 -307 -70 -398 -36 -60 -109 -122 -177 -148 -30 -11 -80 -32 -110 -47 -48
-23 -70 -27 -181 -30 -143 -5 -217 7 -269 43 -97 67 -111 216 -29 302 56 59
79 64 276 63 101 -1 179 2 185 8 16 16 30 221 23 352 -8 151 -35 298 -81 443
-30 91 -41 113 -75 144 -21 20 -59 73 -82 117 -68 127 -135 224 -207 295 -129
129 -243 162 -361 104 -110 -54 -258 -232 -357 -429 -37 -73 -62 -106 -113
-146 -27 -22 -75 -181 -104 -343 -25 -138 -22 -492 5 -535 6 -9 51 -12 192
-11 101 1 196 -2 210 -8 40 -15 97 -70 113 -109 19 -43 19 -123 2 -165 -17
-39 -87 -104 -124 -114 -16 -5 -98 -8 -183 -8 -131 0 -160 3 -190 18 -19 11
-57 26 -85 34 -161 48 -250 141 -291 305 -21 85 -31 441 -15 564 17 124 56
297 92 401 20 59 31 111 33 158 4 125 88 282 303 565 35 46 166 155 246 203
34 21 68 50 76 65 24 46 60 89 96 114 22 14 37 34 40 53 54 270 280 574 545
732 89 54 174 90 267 114 76 20 235 40 261 33 8 -2 30 -4 49 -4z m543 -213
c247 -187 500 -301 759 -343 113 -18 316 -18 427 1 314 54 660 238 927 491 32
31 60 54 61 52 1 -1 8 -32 15 -67 34 -174 143 -301 343 -402 l77 -38 -11 -38
c-20 -74 -72 -154 -150 -232 -154 -155 -323 -271 -553 -382 -288 -138 -484
-188 -895 -228 -66 -6 -106 -7 -108 -1 -2 6 -26 10 -54 10 -28 0 -98 7 -157
16 -403 59 -778 222 -1088 471 -153 123 -255 254 -277 356 -6 23 -2 29 21 38
56 21 146 70 197 108 117 87 200 219 212 338 l7 62 76 -70 c42 -39 119 -103
171 -142z m2679 169 c157 -54 274 -127 391 -246 156 -157 274 -375 320 -592
11 -53 11 -53 81 -87 62 -30 206 -143 208 -163 1 -4 21 -37 46 -74 25 -36 45
-76 45 -89 0 -13 6 -30 13 -37 26 -26 27 -223 2 -322 -27 -106 -73 -184 -160
-272 -124 -126 -251 -178 -430 -177 -257 2 -482 169 -561 418 -51 160 -29 346
59 493 46 77 151 173 237 216 40 20 79 36 87 36 19 0 11 39 -27 133 -42 102
-87 173 -163 253 -84 89 -136 124 -256 168 -125 47 -152 73 -170 172 -8 39 -5
52 19 100 16 30 30 53 33 52 2 -2 11 3 20 10 44 37 112 39 206 8z m1296 -2905
c70 -32 125 -114 125 -187 0 -94 -64 -187 -146 -212 -52 -15 -1590 -18 -1643
-2 -110 31 -180 151 -152 258 16 57 63 116 112 140 44 22 44 22 854 22 764 0
812 -1 850 -19z m-52 -988 c-7 -2 -19 -2 -25 0 -7 3 -2 5 12 5 14 0 19 -2 13
-5z"/>
<path d="M6965 3201 c-89 -23 -167 -88 -212 -174 -24 -45 -27 -64 -28 -142 0
-79 3 -96 28 -142 34 -67 84 -116 150 -150 45 -24 64 -28 137 -28 71 0 94 4
141 26 31 15 73 43 94 64 41 42 85 128 84 166 0 13 0 45 0 71 0 26 -4 50 -9
53 -5 3 -7 12 -4 20 10 25 -36 109 -84 154 -26 24 -67 53 -92 64 -48 22 -156
31 -205 18z"/>
</g>
</svg>
