<?xml version="1.0" standalone="no"?>
<!DOCTYPE svg PUBLIC "-//W3C//DTD SVG 20010904//EN"
 "http://www.w3.org/TR/2001/REC-SVG-20010904/DTD/svg10.dtd">
<svg version="1.0" xmlns="http://www.w3.org/2000/svg"
 width="492.000000pt" height="604.000000pt" viewBox="0 0 492.000000 604.000000"
 preserveAspectRatio="xMidYMid meet">

<g transform="translate(0.000000,604.000000) scale(0.100000,-0.100000)"
fill="#000000" stroke="none">
<path d="M2280 6031 c-123 -28 -267 -140 -322 -252 -43 -87 -49 -114 -54 -254
-7 -187 -10 -204 -39 -215 -14 -5 -344 -9 -778 -10 -758 0 -821 -3 -898 -37
-46 -20 -125 -108 -143 -160 -20 -58 -30 -222 -16 -274 27 -97 85 -185 145
-217 89 -48 -25 -46 2245 -49 1947 -3 2131 -2 2200 13 94 21 171 70 209 134
55 94 70 282 31 381 -25 62 -70 128 -87 129 -7 0 -13 5 -13 10 0 6 -12 16 -27
23 -16 6 -30 14 -33 18 -21 25 -162 29 -904 29 -604 1 -778 3 -781 13 -2 6 -9
90 -15 184 -11 168 -17 201 -58 282 -45 90 -131 170 -238 221 -68 33 -71 34
-229 36 -88 2 -176 -1 -195 -5z"/>
<path d="M407 4173 c-10 -9 -7 -3324 3 -3413 7 -69 18 -114 52 -212 7 -21 16
-38 20 -38 5 0 8 -6 8 -14 0 -7 7 -19 16 -27 8 -7 26 -33 39 -58 23 -46 137
-171 155 -171 6 0 10 -4 10 -9 0 -15 133 -91 204 -117 23 -9 79 -24 125 -35
82 -18 135 -19 1408 -19 1179 0 1331 2 1400 16 43 9 92 23 110 30 17 8 34 14
38 14 8 0 83 36 110 53 122 76 213 168 282 286 40 68 54 101 81 191 15 50 17
210 19 1793 l3 1737 -2038 0 c-1121 0 -2042 -3 -2045 -7z m990 -744 c52 -19
93 -69 117 -142 3 -10 6 -540 6 -1178 0 -1058 -1 -1162 -16 -1192 -25 -49 -79
-97 -128 -113 -39 -14 -50 -14 -100 1 -31 9 -56 21 -56 26 0 5 -6 9 -12 9 -15
0 -52 52 -67 93 -8 19 -11 397 -11 1189 0 1287 -5 1197 65 1261 56 53 136 71
202 46z m1142 -17 c45 -22 60 -37 80 -77 l26 -49 3 -1136 c2 -831 -1 -1151 -9
-1193 -22 -110 -125 -178 -234 -155 -57 12 -120 72 -135 127 -7 27 -10 401 -8
1214 l3 1175 31 39 c36 45 105 82 154 82 19 1 60 -12 89 -27z m1113 13 c38
-15 94 -73 109 -112 5 -14 9 -495 9 -1195 0 -1305 6 -1198 -71 -1277 -73 -74
-161 -75 -241 -3 -84 76 -78 -24 -78 1282 0 1125 1 1159 19 1201 11 25 30 54
43 66 53 49 144 66 210 38z"/>
</g>
</svg>
