<?xml version="1.0" standalone="no"?>
<!DOCTYPE svg PUBLIC "-//W3C//DTD SVG 20010904//EN"
 "http://www.w3.org/TR/2001/REC-SVG-20010904/DTD/svg10.dtd">
<svg version="1.0" xmlns="http://www.w3.org/2000/svg"
 width="1212.000000pt" height="1133.000000pt" viewBox="0 0 1212.000000 1133.000000"
 preserveAspectRatio="xMidYMid meet">

<g transform="translate(0.000000,1133.000000) scale(0.100000,-0.100000)"
fill="#000000" stroke="none">
<path d="M4870 11315 c0 -8 4 -15 10 -15 5 0 7 7 4 15 -4 8 -8 15 -10 15 -2 0
-4 -7 -4 -15z"/>
<path d="M4055 11279 c-726 -5 -949 -14 -980 -39 -5 -4 -29 -11 -52 -15 -24
-4 -43 -11 -43 -16 0 -5 -10 -9 -22 -9 -13 -1 -41 -9 -63 -20 -22 -11 -46 -19
-52 -20 -7 0 -13 -4 -13 -10 0 -5 -5 -10 -11 -10 -16 0 -128 -69 -159 -97 -14
-13 -29 -23 -34 -23 -5 0 -265 -255 -578 -567 -479 -478 -568 -572 -568 -595
0 -24 -4 -28 -28 -28 -23 0 -122 -94 -630 -604 -331 -332 -602 -609 -602 -615
0 -7 -6 -19 -13 -26 -30 -34 -37 -45 -43 -69 -3 -14 -10 -26 -15 -26 -5 0 -9
-6 -9 -12 0 -7 -7 -26 -15 -42 -16 -30 -29 -74 -46 -157 -14 -69 -7 -7418 7
-7427 6 -4 14 -28 18 -54 4 -26 11 -50 15 -53 5 -2 12 -21 15 -40 4 -19 11
-35 16 -35 6 0 10 -5 10 -11 0 -12 40 -99 50 -109 11 -11 50 -69 50 -75 0 -11
106 -121 171 -178 77 -66 92 -77 105 -77 7 0 14 -3 16 -7 5 -12 146 -83 163
-83 8 0 15 -4 15 -9 0 -6 21 -13 48 -17 26 -3 52 -10 58 -15 39 -31 200 -32
3634 -33 3520 -1 3626 0 3638 35 2 5 16 9 30 9 15 0 39 6 54 14 15 8 40 17 57
21 17 4 31 11 31 16 0 5 7 9 16 9 17 0 129 64 152 87 7 7 17 13 22 13 11 0
210 201 210 212 0 5 5 14 10 21 41 48 50 62 50 74 0 7 4 13 8 13 5 0 16 26 26
58 10 31 24 67 32 79 40 63 65 203 57 315 -3 40 0 100 6 133 8 43 11 652 11
2180 0 2010 1 2121 17 2136 10 9 25 26 33 39 8 12 27 35 43 50 15 16 27 33 27
39 0 5 6 14 13 18 7 4 23 22 35 38 24 33 53 68 107 130 19 22 35 43 35 47 0 4
12 21 28 37 36 38 86 101 91 113 2 5 15 22 30 38 35 38 85 101 90 112 2 5 16
22 31 38 15 16 40 46 56 67 16 21 46 59 69 85 22 25 48 57 57 70 41 54 64 84
78 99 8 9 26 31 40 48 46 60 84 106 145 176 19 22 35 43 35 47 0 4 12 21 28
37 36 38 86 101 91 113 2 5 15 22 30 38 35 38 85 101 90 112 2 5 15 22 30 38
14 16 31 35 36 42 30 38 91 114 95 118 3 3 30 37 60 75 30 39 57 72 61 75 3 3
30 36 59 74 29 37 60 76 69 86 9 9 27 32 41 49 42 54 57 73 140 171 16 19 30
38 30 41 0 3 15 22 33 42 17 20 38 44 46 53 10 12 15 13 21 4 5 -9 10 -6 15
10 4 12 34 48 68 81 38 37 54 59 44 59 -10 0 -17 5 -17 10 0 6 4 10 9 10 6 0
13 -4 16 -10 3 -5 21 -10 39 -10 33 0 66 -25 66 -49 0 -26 36 -64 77 -82 72
-31 84 -118 25 -169 -17 -14 -32 -40 -36 -60 -4 -22 -22 -50 -49 -76 -44 -44
-99 -110 -106 -127 -2 -6 -14 -20 -25 -31 -12 -12 -46 -52 -76 -91 -30 -38
-62 -77 -70 -86 -14 -15 -26 -30 -82 -104 -13 -16 -30 -37 -38 -46 -18 -19
-58 -70 -68 -86 -7 -11 -60 -75 -97 -118 -11 -13 -27 -33 -35 -45 -8 -12 -27
-35 -42 -50 -16 -16 -28 -32 -28 -37 0 -4 -16 -24 -35 -43 -19 -19 -35 -37
-35 -42 0 -4 -12 -21 -27 -37 -37 -38 -87 -101 -92 -113 -2 -5 -15 -22 -30
-38 -36 -39 -85 -101 -90 -113 -2 -6 -14 -20 -25 -31 -12 -12 -46 -52 -76 -91
-30 -38 -57 -72 -61 -75 -3 -3 -30 -36 -59 -74 -29 -37 -60 -76 -69 -86 -18
-19 -73 -87 -81 -100 -7 -11 -58 -75 -85 -105 -11 -13 -27 -33 -35 -45 -8 -12
-27 -35 -42 -50 -16 -16 -28 -32 -28 -37 0 -4 -16 -24 -35 -43 -19 -19 -35
-37 -35 -42 0 -4 -11 -20 -25 -35 -65 -71 -95 -109 -95 -120 0 -7 -4 -13 -8
-13 -5 0 -16 -17 -25 -38 -18 -42 -23 -142 -7 -142 6 0 10 -9 10 -19 0 -27 56
-84 105 -107 44 -20 157 -24 163 -5 2 6 9 11 16 11 17 0 50 32 101 95 22 27
47 57 55 66 19 20 59 71 68 86 8 12 65 82 99 121 13 13 23 28 23 31 0 3 15 22
33 42 17 20 43 51 57 69 49 62 85 106 145 175 19 22 35 43 35 47 0 4 12 21 28
37 36 38 86 101 91 113 2 5 15 22 30 38 14 16 31 35 36 42 30 38 91 114 95
118 3 3 30 37 60 75 30 39 57 72 61 75 3 3 30 36 59 74 29 37 60 76 69 86 15
16 26 30 83 105 13 16 30 37 38 46 8 9 26 31 40 48 46 60 84 106 145 176 19
22 35 43 35 47 0 4 12 21 28 37 36 38 86 101 91 113 2 5 15 22 30 38 35 38 85
101 90 112 2 5 15 22 30 38 14 16 31 35 36 42 39 50 91 114 96 118 4 3 30 36
59 74 29 37 60 76 69 86 18 20 59 70 69 87 7 11 60 75 97 118 11 13 27 33 35
45 8 12 27 35 43 50 15 16 27 32 27 37 0 4 16 24 35 43 19 19 35 40 35 46 0 7
6 14 13 17 8 2 12 32 12 99 l0 96 -45 44 c-54 53 -137 85 -179 69 -14 -5 -37
-12 -51 -15 -31 -8 -54 -27 -105 -91 -22 -27 -47 -56 -55 -65 -8 -8 -22 -26
-30 -39 l-15 -23 -27 24 c-47 42 -110 93 -124 101 -8 5 -28 20 -44 35 -15 15
-44 40 -64 56 -20 15 -36 33 -36 40 0 6 15 27 33 47 35 40 74 88 85 106 8 12
69 86 92 112 8 9 26 33 40 54 14 20 28 37 33 37 4 0 7 6 7 14 0 8 6 21 14 29
8 7 24 36 36 63 12 27 28 63 36 81 8 17 14 42 14 55 0 13 6 30 13 37 16 16 17
331 1 352 -6 8 -14 33 -18 55 -3 23 -13 54 -21 70 -8 16 -15 35 -15 42 0 6 -4
12 -9 12 -5 0 -12 12 -16 27 -3 15 -10 30 -13 33 -11 8 -52 68 -52 76 0 7
-147 151 -181 177 -13 9 -29 17 -36 17 -7 0 -13 3 -13 8 0 12 -146 82 -172 82
-8 0 -18 4 -24 10 -11 11 -164 32 -229 32 -62 0 -217 -21 -229 -31 -6 -5 -28
-12 -48 -16 -21 -4 -38 -11 -38 -15 0 -4 -11 -11 -25 -14 -27 -7 -114 -58
-155 -91 -33 -26 -130 -123 -155 -155 -11 -14 -45 -56 -75 -95 -30 -38 -62
-77 -70 -86 -14 -15 -26 -30 -82 -104 -13 -16 -30 -37 -38 -46 -8 -9 -26 -31
-40 -48 -46 -60 -84 -106 -145 -176 -19 -22 -35 -43 -35 -47 0 -4 -12 -21 -27
-37 -37 -38 -87 -101 -92 -113 -2 -5 -15 -22 -30 -38 -35 -38 -85 -101 -90
-112 -2 -5 -15 -22 -30 -38 -14 -16 -31 -35 -36 -42 -39 -50 -91 -114 -96
-118 -4 -3 -30 -36 -59 -74 -29 -37 -60 -76 -69 -86 -18 -20 -59 -70 -69 -87
-7 -11 -60 -75 -97 -118 -11 -13 -27 -33 -35 -45 -8 -12 -27 -35 -42 -50 -16
-16 -28 -32 -28 -37 0 -4 -14 -21 -31 -38 -17 -16 -35 -39 -39 -50 -5 -11 -9
505 -9 1147 -1 649 -5 1169 -10 1172 -4 3 -11 37 -15 76 -4 38 -11 72 -17 75
-5 4 -9 16 -9 28 -1 12 -9 40 -20 62 -11 22 -19 46 -20 53 0 6 -4 12 -9 12 -5
0 -12 14 -16 30 -4 17 -10 30 -15 30 -4 0 -11 11 -14 25 -4 14 -11 25 -16 25
-6 0 -10 7 -10 15 0 9 -7 18 -15 21 -8 4 -15 12 -15 19 0 15 -195 215 -210
215 -5 0 -15 6 -22 13 -36 35 -192 117 -222 117 -9 0 -16 4 -16 9 0 5 -19 12
-42 16 -24 4 -48 11 -54 16 -34 28 -233 32 -1656 36 -1134 2 -1458 0 -1458 -9
0 -9 -3 -9 -12 0 -15 15 -95 16 -100 1 -2 -6 -14 -5 -33 5 -17 9 -32 15 -35
14 -3 -2 -347 -5 -765 -9z m360 -419 c3 -5 24 -10 46 -10 21 0 39 5 39 10 0 6
7 10 15 10 8 0 15 -5 15 -10 0 -7 565 -10 1704 -10 938 0 1724 -2 1748 -6 24
-3 59 -13 78 -21 64 -27 105 -48 108 -55 2 -5 8 -8 13 -8 16 0 69 -41 116 -89
49 -50 112 -151 120 -193 3 -15 9 -28 13 -28 4 0 14 -30 21 -67 10 -53 13
-377 16 -1454 l3 -1385 -30 -34 c-16 -18 -30 -38 -30 -44 0 -6 -25 -36 -54
-67 -29 -31 -58 -63 -62 -72 -10 -16 -61 -79 -111 -136 -18 -20 -33 -39 -33
-43 0 -3 -13 -20 -30 -36 -16 -17 -30 -35 -30 -41 0 -5 -6 -14 -13 -18 -7 -4
-23 -21 -35 -38 -24 -33 -53 -68 -107 -130 -19 -22 -35 -43 -35 -47 0 -4 -12
-21 -27 -37 -37 -38 -87 -101 -92 -113 -2 -5 -15 -22 -30 -38 -32 -35 -38 -43
-86 -106 -20 -27 -41 -51 -45 -54 -4 -3 -31 -36 -61 -75 -29 -38 -56 -72 -60
-75 -3 -3 -29 -34 -56 -70 -46 -60 -64 -82 -118 -145 -11 -13 -27 -33 -35 -45
-8 -12 -26 -34 -40 -49 -14 -14 -34 -42 -44 -61 -44 -80 -68 -110 -120 -156
-31 -26 -56 -51 -56 -55 0 -4 -17 -26 -38 -48 l-38 -41 -2566 0 c-2387 0
-2567 -1 -2599 -17 -40 -20 -87 -65 -107 -102 -19 -35 -20 -131 -2 -167 18
-37 70 -94 86 -94 7 0 14 -6 16 -12 4 -10 500 -14 2421 -18 l2416 -5 -20 -32
c-12 -18 -25 -33 -29 -33 -5 0 -11 -8 -14 -17 -3 -10 -21 -34 -38 -54 -31 -34
-44 -51 -100 -124 -12 -16 -34 -41 -48 -56 -34 -37 -84 -100 -89 -111 -2 -5
-15 -22 -30 -38 -35 -38 -85 -101 -90 -112 -2 -5 -15 -22 -30 -38 -36 -39 -85
-101 -90 -113 -2 -6 -15 -21 -29 -34 l-25 -23 -2082 0 c-1934 0 -2084 -1
-2116 -17 -40 -20 -87 -65 -107 -102 -19 -35 -20 -131 -2 -167 18 -37 70 -94
86 -94 7 0 14 -6 16 -12 4 -10 405 -14 1943 -18 1815 -5 1938 -6 1922 -22 -9
-9 -17 -21 -17 -27 0 -5 -6 -14 -13 -18 -7 -4 -23 -25 -37 -45 -14 -21 -28
-38 -32 -38 -5 0 -8 -6 -8 -13 0 -8 -9 -22 -20 -32 -11 -10 -20 -24 -20 -30 0
-7 -7 -15 -15 -19 -8 -3 -15 -12 -15 -21 0 -8 -4 -15 -10 -15 -5 0 -12 -11
-16 -24 -3 -14 -12 -27 -20 -30 -8 -3 -14 -12 -14 -21 0 -8 -4 -15 -9 -15 -5
0 -13 -10 -17 -22 -4 -13 -10 -25 -13 -28 -12 -8 -81 -127 -81 -138 0 -6 -4
-12 -8 -14 -9 -3 -13 -11 -62 -105 -14 -26 -28 -50 -32 -53 -3 -3 -10 -18 -13
-33 -4 -15 -11 -27 -16 -27 -5 0 -9 -5 -9 -11 0 -7 -9 -30 -19 -53 -36 -78
-51 -114 -51 -125 0 -6 -4 -11 -10 -11 -5 0 -12 -16 -16 -37 -4 -20 -13 -48
-20 -62 -8 -14 -14 -34 -14 -43 0 -9 -4 -19 -9 -22 -5 -4 -12 -25 -16 -49 -4
-23 -11 -46 -15 -52 -4 -5 -11 -35 -15 -65 -4 -30 -11 -59 -15 -65 -20 -26
-29 -264 -15 -406 7 -75 7 -76 -24 -106 -17 -18 -31 -35 -31 -40 0 -5 -10 -17
-21 -27 -19 -16 -34 -17 -123 -12 -55 4 -139 7 -186 9 -80 2 -88 4 -140 39
-30 21 -63 38 -72 38 -10 0 -18 4 -18 10 0 5 -11 12 -25 16 -14 3 -25 10 -25
15 0 5 -8 13 -17 16 -16 6 -55 44 -88 85 -21 26 -85 136 -85 146 0 6 -3 12 -7
14 -5 2 -21 22 -37 45 -45 67 -116 133 -143 133 -7 0 -13 4 -13 9 0 5 -12 12
-27 16 -15 3 -31 12 -35 18 -11 17 -260 17 -265 0 -3 -7 -13 -13 -23 -13 -10
0 -25 -6 -32 -12 -7 -7 -31 -22 -52 -33 -21 -11 -41 -25 -43 -32 -3 -7 -10
-13 -17 -13 -18 0 -100 -82 -196 -196 -38 -44 -90 -114 -90 -119 0 -2 -12 -17
-28 -33 -15 -16 -36 -42 -47 -57 l-19 -27 -9 28 c-4 16 -14 74 -22 129 -28
203 -36 250 -45 270 -5 11 -11 40 -15 64 -6 49 -31 136 -46 163 -5 10 -9 23
-9 29 0 24 -70 169 -82 169 -5 0 -8 6 -8 13 0 23 -117 157 -137 157 -5 0 -27
13 -49 29 -21 15 -57 32 -79 36 -22 4 -46 11 -52 17 -7 6 -52 9 -100 8 -115
-2 -123 -3 -123 -11 0 -3 -18 -9 -40 -13 -22 -3 -40 -10 -40 -15 0 -5 -13 -12
-30 -16 -17 -4 -30 -11 -30 -16 0 -5 -8 -13 -17 -16 -10 -4 -36 -24 -58 -45
-21 -21 -43 -38 -47 -38 -4 0 -8 -4 -8 -10 0 -5 -15 -25 -32 -43 -46 -48 -72
-82 -76 -98 -2 -8 -17 -35 -33 -61 -15 -26 -31 -59 -35 -73 -3 -14 -10 -23
-14 -20 -5 3 -11 -13 -15 -35 -4 -22 -10 -40 -15 -40 -4 0 -10 -22 -14 -50 -4
-27 -10 -50 -15 -50 -19 0 -54 -302 -44 -379 7 -54 20 -79 58 -118 44 -43 91
-63 150 -63 51 0 115 23 115 41 0 5 5 9 11 9 13 0 48 41 49 57 0 6 5 13 12 15
7 3 14 45 19 119 8 125 25 229 40 243 5 6 9 17 9 25 1 9 9 34 20 56 11 22 19
46 20 53 0 6 4 12 9 12 5 0 12 11 15 25 4 14 11 25 16 25 6 0 10 6 10 13 0 21
99 107 124 107 44 0 114 -92 132 -173 3 -18 10 -34 13 -37 7 -5 22 -75 45
-215 8 -44 15 -80 16 -80 1 0 8 -45 16 -100 20 -156 35 -239 44 -250 4 -5 11
-31 15 -57 4 -27 11 -48 15 -48 4 0 11 -16 14 -35 4 -19 11 -35 16 -35 5 0 12
-10 16 -22 10 -32 83 -102 129 -124 30 -14 62 -19 125 -19 72 0 94 5 140 27
83 41 185 130 270 237 19 24 45 55 58 69 12 13 22 28 22 31 0 3 13 20 28 38
15 17 37 45 49 61 12 16 34 41 48 56 14 15 25 29 25 32 0 17 94 84 106 76 6
-4 21 -25 34 -47 13 -22 27 -42 31 -45 3 -3 10 -16 14 -30 4 -14 10 -27 14
-30 3 -3 22 -27 41 -55 18 -27 63 -80 100 -116 65 -66 192 -159 217 -159 7 0
13 -4 13 -10 0 -5 7 -10 15 -10 8 0 15 -4 15 -10 0 -5 7 -10 16 -10 9 0 31 -9
48 -19 17 -10 56 -22 86 -26 30 -4 60 -11 65 -15 10 -9 105 -23 260 -41 50 -6
149 -9 220 -7 176 5 183 9 307 173 13 17 32 39 44 50 11 11 23 27 27 37 4 12
22 18 69 21 94 8 210 27 222 36 6 5 28 11 48 15 20 4 50 13 65 21 15 8 34 15
41 15 6 0 12 5 12 10 0 6 8 10 18 10 10 0 49 16 87 36 39 20 84 44 100 52 17
9 32 19 35 22 3 4 15 10 28 14 12 4 22 12 22 17 0 5 4 9 9 9 14 0 121 72 121
81 0 5 7 9 15 9 8 0 23 9 32 20 10 11 22 20 27 20 5 0 19 11 32 25 13 14 27
25 31 25 8 0 35 23 148 122 112 99 411 404 470 480 6 7 23 29 39 48 15 19 42
52 60 74 17 21 40 48 51 61 11 13 27 33 35 45 8 12 27 35 43 50 15 16 27 33
27 39 0 5 6 14 13 18 8 4 24 24 38 43 13 19 34 44 47 56 12 12 22 25 22 30 0
5 16 25 35 44 19 19 35 37 35 42 0 4 12 21 28 37 36 38 86 101 91 113 2 5 15
22 30 38 35 38 85 101 90 112 2 5 15 22 30 38 14 16 31 35 36 42 29 37 92 114
105 129 19 20 59 71 68 86 8 12 65 82 100 121 12 13 22 28 22 31 0 4 18 26 40
49 22 22 40 46 40 51 0 6 6 14 13 18 7 4 23 22 35 38 24 33 53 68 107 130 19
22 35 43 35 47 0 4 12 21 28 37 35 38 86 101 91 113 2 5 14 21 27 36 63 69 94
108 94 118 0 7 7 14 15 18 13 5 15 -213 12 -1957 -3 -1594 -6 -1974 -17 -2027
-7 -36 -16 -67 -20 -70 -4 -3 -10 -17 -14 -33 -6 -25 -55 -114 -81 -145 -30
-37 -86 -92 -93 -92 -5 0 -17 -9 -27 -20 -10 -11 -24 -20 -31 -20 -7 0 -14 -3
-16 -7 -5 -12 -93 -53 -111 -53 -9 0 -18 -4 -21 -9 -3 -5 -25 -11 -48 -14 -45
-6 -1063 -9 -3563 -10 -1666 0 -1684 0 -1703 15 -9 8 -11 7 -7 -3 4 -12 -108
-14 -747 -12 -955 3 -1034 5 -1073 26 -16 9 -35 17 -41 17 -16 0 -74 30 -114
59 -50 36 -140 127 -140 140 0 6 -4 11 -8 11 -9 0 -62 101 -89 170 -17 43 -18
236 -20 3602 l-3 3558 967 3 c954 3 1061 7 1098 36 5 5 26 12 45 16 19 4 41
11 50 15 87 41 116 56 118 63 2 4 8 7 12 7 12 0 97 57 134 90 66 57 136 125
136 133 0 4 11 18 25 31 14 13 25 26 25 29 0 3 16 29 35 58 19 30 35 59 35 66
0 7 5 13 10 13 6 0 10 6 10 13 1 6 9 30 20 52 11 22 19 50 20 63 0 12 4 22 9
22 6 0 13 21 17 48 3 26 12 53 18 61 8 10 12 288 14 995 l3 981 554 -3 c371
-1 555 1 555 8 0 13 17 13 25 0z m-1558 -1047 c-2 -472 -7 -865 -10 -873 -3
-8 -10 -37 -17 -65 -10 -43 -30 -82 -75 -144 -13 -18 -138 -143 -156 -156 -23
-16 -105 -55 -118 -55 -6 0 -11 -4 -11 -9 0 -5 -24 -12 -52 -16 -29 -4 -58
-11 -65 -17 -10 -8 -1681 -13 -1690 -4 -3 3 256 273 329 344 12 12 436 434
941 937 506 503 921 915 924 915 2 0 3 -386 0 -857z m8216 -202 c140 -76 217
-204 217 -363 0 -42 -4 -79 -9 -82 -5 -4 -12 -24 -16 -45 -4 -22 -13 -45 -21
-52 -8 -6 -14 -18 -14 -25 0 -8 -3 -14 -7 -14 -5 0 -19 -17 -33 -37 -14 -20
-36 -49 -50 -64 -35 -38 -84 -100 -89 -111 -2 -5 -15 -22 -30 -38 -35 -38 -85
-101 -90 -112 -2 -5 -15 -22 -30 -38 -35 -38 -85 -101 -90 -112 -2 -5 -15 -22
-30 -38 -14 -16 -31 -35 -36 -42 -49 -63 -94 -116 -112 -134 -13 -12 -23 -26
-23 -32 0 -6 -6 -15 -13 -19 -7 -4 -20 -19 -29 -33 -8 -14 -26 -37 -39 -51
-27 -30 -67 -79 -77 -96 -10 -16 -71 -88 -114 -137 -21 -22 -38 -44 -38 -48 0
-4 -12 -21 -27 -37 -37 -38 -87 -101 -92 -113 -2 -5 -15 -22 -30 -38 -35 -38
-85 -101 -90 -112 -2 -5 -15 -22 -30 -38 -14 -16 -31 -35 -36 -42 -30 -38 -91
-114 -95 -118 -3 -3 -30 -36 -60 -75 -30 -38 -57 -72 -61 -75 -3 -3 -30 -36
-59 -74 -29 -37 -60 -76 -69 -86 -15 -16 -30 -35 -83 -105 -13 -16 -33 -40
-45 -51 -13 -12 -23 -25 -23 -29 0 -8 -17 -29 -52 -63 -10 -9 -18 -20 -18 -24
0 -4 -12 -21 -27 -37 -39 -41 -87 -102 -92 -115 -9 -25 -54 -76 -72 -81 -10
-4 -19 -11 -19 -17 0 -5 -9 -21 -19 -34 l-19 -24 -30 25 c-16 14 -33 25 -36
25 -8 0 -38 25 -95 77 -25 24 -49 43 -53 43 -4 0 -21 12 -37 28 -16 15 -36 32
-43 37 -50 39 -114 91 -118 96 -3 4 -35 29 -71 57 -37 28 -79 62 -94 76 -15
14 -32 26 -37 26 -9 0 -7 3 47 65 19 22 35 43 35 47 0 4 12 21 28 37 36 38 86
101 91 113 2 5 15 22 30 38 36 39 85 101 90 113 2 6 14 20 25 31 12 12 46 52
76 91 30 38 62 77 70 86 18 20 58 70 68 86 8 12 65 82 100 121 12 13 22 28 22
31 0 4 18 26 40 49 22 22 40 46 40 51 0 6 6 14 13 18 8 4 24 24 38 43 13 19
34 44 47 56 12 12 22 25 22 30 0 5 16 25 35 44 19 19 35 37 35 42 0 4 12 21
28 37 36 38 86 101 91 113 2 5 15 22 30 38 35 38 85 101 90 112 2 5 15 22 30
38 14 16 31 35 36 42 39 50 91 114 96 118 4 3 24 28 45 55 21 28 42 55 48 61
6 7 22 26 36 44 14 18 35 44 48 58 12 14 22 28 22 31 0 3 15 22 33 42 17 20
43 51 57 69 49 62 85 106 145 175 19 22 35 43 35 47 0 4 12 21 28 37 35 38 86
101 91 113 9 23 147 168 160 168 6 0 14 7 17 15 4 8 11 15 16 15 6 0 24 6 41
14 47 22 73 25 177 21 84 -2 102 -6 153 -34z m241 -1752 c-8 -14 -21 -11 -21
5 0 8 6 12 14 9 7 -3 10 -9 7 -14z m-2975 -1216 c38 -37 101 -87 113 -92 5 -2
22 -15 38 -30 39 -36 101 -85 113 -90 6 -2 20 -14 31 -25 12 -12 52 -46 91
-76 38 -30 77 -62 86 -70 16 -15 53 -44 94 -75 14 -10 16 -17 9 -22 -6 -5 -35
-39 -64 -77 -29 -37 -60 -76 -69 -86 -15 -16 -26 -30 -83 -105 -13 -16 -30
-37 -38 -46 -8 -9 -26 -31 -40 -48 -46 -60 -84 -106 -145 -176 -19 -22 -35
-43 -35 -47 0 -4 -12 -21 -27 -37 -37 -38 -87 -101 -92 -113 -2 -5 -15 -22
-30 -37 -14 -16 -35 -41 -46 -57 -19 -27 -126 -155 -152 -182 -7 -7 -13 -18
-13 -23 0 -6 -4 -8 -9 -5 -8 5 -20 -12 -21 -29 0 -3 -8 -13 -17 -24 -20 -20
-60 -70 -71 -88 -8 -12 -65 -82 -99 -121 -13 -13 -23 -28 -23 -31 0 -3 -15
-22 -33 -42 -17 -20 -43 -51 -57 -69 -49 -62 -85 -106 -145 -175 -19 -22 -35
-43 -35 -47 0 -4 -12 -21 -27 -37 -37 -38 -87 -101 -92 -113 -2 -5 -15 -22
-30 -38 -14 -16 -31 -35 -36 -42 -30 -38 -91 -114 -95 -118 -3 -3 -30 -36 -60
-75 -30 -38 -57 -72 -61 -75 -3 -3 -30 -36 -59 -74 -29 -37 -60 -76 -69 -86
-18 -20 -59 -70 -69 -87 -7 -11 -60 -75 -97 -118 -11 -13 -27 -33 -35 -45 -8
-12 -27 -35 -42 -50 -16 -16 -28 -32 -28 -37 0 -4 -16 -24 -35 -43 -19 -19
-35 -37 -35 -42 0 -4 -12 -21 -27 -37 -16 -16 -33 -36 -38 -43 -142 -185 -458
-504 -622 -627 -27 -20 -56 -42 -64 -49 -56 -49 -266 -183 -307 -196 -12 -4
-22 -11 -22 -16 0 -5 -13 -11 -30 -15 -16 -4 -32 -11 -35 -16 -4 -5 -14 -9
-23 -9 -9 0 -30 -7 -46 -15 -16 -8 -47 -18 -70 -21 -22 -4 -50 -11 -60 -17
-19 -9 -19 -5 -13 118 3 69 10 132 15 138 5 7 12 30 16 52 7 42 29 107 52 162
8 17 14 38 14 46 0 9 4 18 9 22 5 3 12 18 16 33 3 16 19 55 35 88 17 32 30 65
30 72 0 6 4 12 9 12 5 0 12 12 16 27 3 15 10 30 13 33 4 3 14 19 23 35 39 75
65 120 77 133 6 7 12 20 12 28 0 8 5 14 10 14 6 0 10 4 10 9 0 13 127 208 170
261 8 10 22 28 30 40 13 19 34 49 62 85 5 6 24 28 43 50 19 22 35 43 35 47 0
4 12 21 28 37 36 38 86 101 91 113 2 5 15 22 30 38 36 39 85 101 90 113 2 6
14 20 25 31 12 12 46 52 76 91 30 38 62 77 70 86 18 20 58 70 68 86 7 11 60
75 97 118 11 13 27 33 35 45 8 12 24 32 35 45 11 12 31 37 45 55 14 18 33 40
43 49 9 8 17 19 17 23 0 4 12 21 28 37 36 38 86 101 91 113 2 5 15 22 30 38
35 38 85 101 90 112 2 5 15 22 30 38 14 16 31 35 36 42 6 7 28 35 50 63 22 27
45 56 50 63 6 7 25 29 43 49 17 20 32 39 32 42 0 3 12 19 26 34 14 15 48 57
76 94 28 36 58 73 67 83 15 16 26 30 83 105 13 16 30 37 38 46 8 9 26 31 40
48 46 60 84 106 145 176 19 22 35 43 35 47 0 4 12 21 28 37 36 38 86 101 91
113 2 5 15 22 30 38 35 38 85 101 90 112 2 5 15 22 30 38 14 16 31 35 36 42
31 40 92 114 105 128 8 9 35 44 60 78 25 34 48 61 52 62 4 0 21 -12 37 -27z"/>
<path d="M4586 9655 c-41 -22 -94 -78 -102 -109 -3 -14 -10 -26 -15 -26 -12 0
-11 -97 1 -105 6 -3 10 -14 10 -24 0 -10 9 -28 20 -41 11 -13 20 -26 20 -31 0
-4 20 -17 43 -28 l44 -21 1279 2 1280 3 30 25 c53 43 74 91 74 165 0 80 -21
124 -81 168 l-43 32 -1266 3 c-1122 2 -1268 0 -1294 -13z"/>
<path d="M2500 6872 c-738 -2 -711 0 -770 -61 -28 -29 -70 -110 -70 -135 0
-35 34 -122 57 -147 13 -14 43 -36 67 -47 l43 -22 2659 2 c2628 3 2659 3 2689
23 17 11 38 29 47 40 10 11 23 26 30 34 17 20 24 139 9 154 -6 6 -11 18 -11
28 0 9 -11 28 -25 43 -14 15 -25 33 -25 40 0 6 -17 20 -38 29 -35 15 -195 17
-2012 19 -1086 2 -2279 2 -2650 0z"/>
<path d="M12103 4350 c0 -36 2 -50 4 -32 2 17 2 47 0 65 -2 17 -4 3 -4 -33z"/>
</g>
</svg>
