<?xml version="1.0" encoding="utf-8"?>
<!-- Svg Vector Icons : http://www.onlinewebfonts.com/icon -->
<!DOCTYPE svg PUBLIC "-//W3C//DTD SVG 1.1//EN" "http://www.w3.org/Graphics/SVG/1.1/DTD/svg11.dtd">
<svg version="1.1" xmlns="http://www.w3.org/2000/svg" xmlns:xlink="http://www.w3.org/1999/xlink" x="0px" y="0px" viewBox="0 0 1000 1000" enable-background="new 0 0 1000 1000" xml:space="preserve">
<metadata> Svg Vector Icons : http://www.onlinewebfonts.com/icon </metadata>
<g><g transform="translate(0.000000,511.000000) scale(0.100000,-0.100000)"><path d="M4707.3,5004.7c-248.1-39-571.4-133.8-752.6-217.4c-922.6-426.5-1547-1363-1619.4-2433.4c-55.7-858.5,393-1867.5,1580.4-3537.1c225.8-320.5,560.3-788.8,738.6-1042.5c175.6-253.6,331.7-462.7,342.8-468.3c11.1-2.8,69.7,64.1,128.2,153.3c58.5,89.2,320.5,457.1,582.6,816.7C7006.9,71.1,7489.1,951.9,7639.6,1802.1c75.3,432,0,1025.7-189.5,1482.9C7020.8,4319,6137.2,4965.7,5097.6,5004.7C4930.3,5013.1,4754.7,5010.3,4707.3,5004.7z M5323.3,3644.5c624.4-167.2,1042.5-797.2,936.6-1413.2c-44.6-264.8-147.7-468.3-331.7-666.2c-281.5-306.6-721.9-459.9-1114.9-395.8c-696.8,117.1-1190.2,777.7-1075.9,1443.9c83.6,485,457.1,900.3,925.4,1031.3C4835.6,3691.9,5147.7,3691.9,5323.3,3644.5z"/><path d="M1780.6-712.1c-25.1-89.2-303.8-1031.3-616-2096.1C852.4-3870.2,596-4751,596-4764.9c0-13.9,1842.4-25.1,4404-25.1c2422.2,0,4404,11.2,4404,25.1c0,11.1-256.4,892-568.6,1956.7c-312.2,1064.7-590.9,2006.9-616,2096.1l-44.6,158.9h-680.1h-680.1l-142.1-209.1c-75.3-114.3-139.4-211.8-139.4-220.2c0-8.4,298.2-19.5,660.6-22.3l660.6-8.4l465.5-1588.8c259.2-872.4,476.6-1622.2,485-1664l19.5-78H5000H1175.8l19.5,78c8.4,41.8,225.8,791.6,485,1664l465.5,1588.8l674.5,8.4l674.5,5.6l-147.7,223l-145,223h-688.5h-688.5L1780.6-712.1z"/></g></g>
</svg>