<?xml version="1.0" standalone="no"?>
<!DOCTYPE svg PUBLIC "-//W3C//DTD SVG 20010904//EN"
 "http://www.w3.org/TR/2001/REC-SVG-20010904/DTD/svg10.dtd">
<svg version="1.0" xmlns="http://www.w3.org/2000/svg"
 width="516.000000pt" height="569.000000pt" viewBox="0 0 516.000000 569.000000"
 preserveAspectRatio="xMidYMid meet">

<g transform="translate(0.000000,569.000000) scale(0.100000,-0.100000)"
fill="#000000" stroke="none">
<path d="M2220 5449 c-94 -12 -235 -55 -304 -92 -85 -45 -160 -117 -195 -189
-17 -34 -31 -68 -31 -77 0 -9 -27 -30 -65 -50 -124 -66 -192 -159 -216 -296
-15 -90 -7 -272 21 -437 l21 -128 -25 -33 c-63 -83 -58 -267 16 -577 51 -215
83 -289 149 -339 35 -26 55 -56 99 -145 249 -497 631 -750 1012 -671 76 16
262 100 254 114 -3 5 22 26 57 47 97 59 152 110 230 213 93 122 123 171 189
302 42 84 62 114 97 140 60 46 93 117 135 285 55 221 70 310 70 434 1 120 -9
165 -47 207 -17 19 -18 26 -7 75 20 87 24 358 7 478 -24 171 -69 263 -191 388
-150 154 -387 270 -675 328 -104 21 -160 26 -331 29 -113 2 -234 -1 -270 -6z
m25 -1081 c52 -20 226 -110 355 -183 331 -187 498 -222 662 -139 26 13 50 24
54 24 3 0 4 -63 2 -140 -3 -135 -2 -140 17 -140 32 0 81 35 93 66 6 16 16 55
22 86 13 66 47 122 77 126 34 5 63 -42 63 -103 0 -103 -73 -457 -116 -565 -15
-37 -19 -40 -53 -40 -34 0 -38 -3 -50 -37 -42 -120 -197 -398 -254 -455 -9 -9
-17 -20 -17 -25 0 -13 -67 -74 -119 -108 -24 -16 -50 -39 -58 -51 -19 -30
-161 -100 -243 -120 -167 -42 -375 19 -531 154 -24 21 -59 47 -77 57 -18 11
-31 24 -29 29 2 6 -27 50 -64 99 -78 104 -161 250 -210 372 -32 82 -35 86 -63
83 -21 -2 -34 4 -48 22 -37 50 -128 468 -128 588 0 54 18 91 47 98 43 11 75
-34 97 -141 16 -75 37 -112 72 -125 58 -22 60 -19 56 89 -7 177 30 303 118
404 93 105 190 128 325 75z"/>
<path d="M1740 2340 c-14 -4 -93 -42 -177 -83 l-151 -76 -27 -55 c-22 -45 -26
-64 -21 -103 3 -26 9 -83 14 -125 11 -102 39 -144 130 -197 83 -48 141 -109
182 -192 25 -49 31 -71 27 -103 -4 -33 16 -103 104 -365 92 -273 109 -333 109
-385 0 -110 -70 -211 -165 -238 -22 -6 -52 -23 -68 -37 -22 -20 -40 -26 -92
-29 -40 -3 -77 1 -96 9 -57 23 -73 114 -27 156 14 13 41 19 93 21 62 4 80 1
113 -18 40 -23 40 -23 74 -3 51 30 78 77 78 137 0 73 -203 673 -236 699 -13
10 -34 41 -47 70 -47 102 -159 179 -258 179 -57 0 -154 -43 -173 -77 -6 -11
-17 -24 -23 -28 -7 -4 -13 -14 -13 -21 0 -6 -26 -43 -59 -82 l-58 -69 -103
-308 c-56 -169 -104 -325 -107 -347 -8 -58 27 -123 85 -157 31 -19 47 -23 50
-15 8 24 61 42 122 42 94 0 129 -26 129 -95 0 -71 -35 -95 -137 -95 -62 0 -72
3 -102 30 -18 17 -40 30 -47 30 -25 0 -87 38 -119 72 -53 56 -69 95 -68 173 0
62 12 105 107 386 91 269 107 323 101 357 -13 82 91 234 204 298 95 55 132
110 137 204 1 31 8 67 15 79 15 29 29 121 19 121 -19 0 -717 -355 -759 -385
-118 -87 -218 -228 -263 -370 -9 -27 -57 -259 -107 -514 -85 -434 -90 -468
-80 -518 15 -69 65 -141 125 -178 l48 -30 2327 -3 2327 -2 44 23 c25 13 50 36
58 53 8 16 29 42 48 58 18 16 33 33 33 39 0 6 9 20 20 32 19 20 19 24 5 51 -8
16 -15 38 -15 49 0 33 -170 887 -187 940 -25 79 -77 175 -130 240 -88 108
-146 146 -505 326 -186 93 -340 169 -342 169 -3 0 7 -30 21 -67 46 -121 76
-244 78 -328 1 -60 5 -79 15 -77 9 2 11 -7 7 -38 -3 -22 -2 -40 2 -40 11 0
-25 -265 -48 -350 -22 -84 -70 -203 -109 -269 l-25 -43 25 -52 c58 -115 42
-216 -45 -301 -57 -56 -105 -75 -184 -75 -92 0 -179 56 -226 145 -28 53 -30
165 -3 215 31 59 96 118 149 136 48 16 132 15 183 -1 17 -5 25 3 51 52 43 81
70 153 95 258 30 122 32 388 4 515 -26 122 -62 223 -113 320 l-44 85 -77 37
c-42 20 -130 62 -194 93 -92 45 -123 55 -146 50 -28 -6 -30 -9 -36 -73 -25
-254 -156 -877 -241 -1153 -32 -100 -89 -263 -112 -316 l-16 -38 -9 30 c-34
121 -218 1014 -213 1035 4 14 38 81 76 149 38 68 69 133 69 146 0 12 -8 29
-18 38 -16 15 -49 17 -260 17 -229 0 -243 -1 -262 -20 -11 -11 -20 -28 -20
-37 0 -9 31 -73 69 -142 38 -69 72 -138 76 -152 4 -15 -5 -74 -19 -140 -14
-63 -64 -294 -111 -514 -47 -219 -88 -401 -90 -403 -7 -8 -77 180 -130 348
-82 264 -209 865 -241 1143 -9 76 -33 97 -94 77z"/>
<path d="M3585 834 c-46 -24 -63 -43 -80 -89 -21 -55 -7 -115 39 -161 108
-108 295 2 255 149 -10 38 -11 38 -30 21 -13 -12 -19 -30 -19 -62 0 -77 -73
-123 -144 -90 -51 23 -74 96 -47 147 14 26 61 51 95 51 25 0 52 31 39 44 -12
12 -78 6 -108 -10z"/>
</g>
</svg>
