<?xml version="1.0" standalone="no"?>
<!DOCTYPE svg PUBLIC "-//W3C//DTD SVG 20010904//EN"
 "http://www.w3.org/TR/2001/REC-SVG-20010904/DTD/svg10.dtd">
<svg version="1.0" xmlns="http://www.w3.org/2000/svg"
 width="200.000000pt" height="160.000000pt" viewBox="0 0 200.000000 160.000000"
 preserveAspectRatio="xMidYMid meet">

<g transform="translate(0.000000,160.000000) scale(0.100000,-0.100000)"
fill="#000000" stroke="none">
<path d="M160 1545 c-46 -21 -78 -52 -101 -97 -18 -35 -19 -66 -19 -591 l0
-554 23 -44 c15 -28 40 -54 68 -71 41 -25 55 -27 238 -37 276 -16 470 -49 598
-102 29 -12 39 -11 80 5 137 52 307 81 584 97 221 13 251 22 296 91 l28 42 3
550 c2 303 0 566 -3 584 -8 45 -67 107 -121 128 -61 23 -357 15 -489 -15 -168
-37 -253 -69 -301 -113 l-44 -41 -44 41 c-48 44 -132 76 -301 114 -126 27
-444 36 -495 13z m415 -131 c102 -17 227 -49 267 -70 43 -22 75 -63 87 -110
13 -49 16 -1034 4 -1034 -5 0 -73 14 -153 30 -137 28 -263 43 -483 56 -66 4
-102 11 -112 21 -13 12 -15 91 -15 552 0 607 -6 566 80 574 68 6 224 -3 325
-19z m1237 -1 c17 -15 18 -45 18 -552 0 -295 -4 -541 -8 -548 -15 -23 -65 -33
-165 -33 -118 0 -310 -22 -447 -51 -52 -11 -107 -23 -122 -26 l-28 -5 0 496
c0 323 4 512 11 540 19 75 61 108 184 145 121 36 224 49 384 50 131 1 157 -2
173 -16z"/>
</g>
</svg>
