<?xml version="1.0" standalone="no"?>
<!DOCTYPE svg PUBLIC "-//W3C//DTD SVG 20010904//EN"
 "http://www.w3.org/TR/2001/REC-SVG-20010904/DTD/svg10.dtd">
<svg version="1.0" xmlns="http://www.w3.org/2000/svg"
 width="512.000000pt" height="512.000000pt" viewBox="0 0 512.000000 512.000000"
 preserveAspectRatio="xMidYMid meet">

<g transform="translate(0.000000,512.000000) scale(0.100000,-0.100000)"
fill="#000000" stroke="none">
<path d="M1875 5106 c-182 -44 -346 -213 -384 -394 -54 -262 112 -528 374
-598 66 -18 187 -18 258 1 166 43 319 196 362 362 96 367 -244 718 -610 629z"/>
<path d="M1730 3741 c-84 -27 -126 -64 -496 -434 -439 -440 -429 -427 -429
-577 0 -143 4 -149 309 -457 l259 -262 -67 -267 c-146 -580 -264 -899 -440
-1197 -56 -94 -70 -147 -64 -235 15 -208 224 -355 422 -298 110 32 170 86 254
228 154 262 287 616 453 1206 l73 262 421 -2 420 -3 0 -295 c0 -162 4 -316 8
-342 l8 -48 -86 0 c-444 0 -828 -374 -836 -816 -3 -110 22 -155 104 -189 32
-13 164 -15 1089 -15 1005 0 1055 1 1094 19 65 30 88 71 92 166 11 256 -141
536 -375 692 -120 80 -299 143 -404 143 l-30 0 8 48 c4 26 8 272 8 547 0 498
0 500 -23 557 -31 75 -101 150 -177 185 l-60 28 -568 3 -568 3 5 27 c16 80 27
439 24 742 l-3 345 -34 63 c-63 117 -157 175 -286 179 -44 1 -91 -1 -105 -6z
m1898 -3087 c131 -44 239 -137 301 -261 11 -23 21 -45 21 -48 0 -3 -369 -5
-821 -5 l-820 0 6 23 c26 87 139 210 239 261 104 53 119 54 574 55 l423 1 77
-26z"/>
</g>
</svg>
