<?xml version="1.0" encoding="UTF-8" standalone="no"?>
<!-- Created with Inkscape (http://www.inkscape.org/) -->

<svg
   width="47.625mm"
   height="47.625mm"
   viewBox="0 0 47.625 47.625"
   version="1.1"
   id="svg147620"
   inkscape:version="1.2.1 (9c6d41e410, 2022-07-14)"
   sodipodi:docname="Simbolo carico e scarico.svg"
   xmlns:inkscape="http://www.inkscape.org/namespaces/inkscape"
   xmlns:sodipodi="http://sodipodi.sourceforge.net/DTD/sodipodi-0.dtd"
   xmlns="http://www.w3.org/2000/svg"
   xmlns:svg="http://www.w3.org/2000/svg">
  <sodipodi:namedview
     id="namedview147622"
     pagecolor="#ffffff"
     bordercolor="#000000"
     borderopacity="0.25"
     inkscape:showpageshadow="2"
     inkscape:pageopacity="0.0"
     inkscape:pagecheckerboard="0"
     inkscape:deskcolor="#d1d1d1"
     inkscape:document-units="mm"
     showgrid="false"
     inkscape:zoom="0.71624579"
     inkscape:cx="124.25902"
     inkscape:cy="-76.091198"
     inkscape:window-width="1920"
     inkscape:window-height="991"
     inkscape:window-x="-9"
     inkscape:window-y="-9"
     inkscape:window-maximized="1"
     inkscape:current-layer="layer1" />
  <defs
     id="defs147617" />
  <g
     inkscape:label="Livello 1"
     inkscape:groupmode="layer"
     id="layer1"
     transform="translate(-72.017889,-80.573548)">
    <g
       id="g66166"
       transform="matrix(1.5706173,0,0,1.5706173,-629.29508,-400.06769)">
      <rect
         style="opacity:0.993;fill:#ffffff;fill-opacity:1;stroke:#000000;stroke-width:0.801587;stroke-linejoin:miter;stroke-dasharray:none;stroke-opacity:1;paint-order:markers fill stroke"
         id="rect4922-4-7-2-7-4-0"
         width="29.520885"
         height="29.520885"
         x="446.92139"
         y="306.42139"
         rx="4.3120389"
         ry="4.3120389" />
      <g
         id="g14336">
        <path
           style="fill:#000000;fill-opacity:1;stroke:none;stroke-width:0.47625;stroke-dasharray:none;stroke-opacity:1;paint-order:fill markers stroke"
           d="m 454.02682,320.11755 1.29371,-5.23098 1.91238,-2.53111 1.60221,1.58798 0.002,5.75708 1.81309,1.70732 c 0,0 0.70937,0.87991 0.18242,1.38627 -0.52696,0.50637 -1.40675,-0.35795 -1.40675,-0.35795 l -1.82603,-1.73284 z"
           id="path13533"
           sodipodi:nodetypes="cccccczccc" />
        <path
           style="fill:#000000;fill-opacity:1;stroke:none;stroke-width:0.47625;stroke-dasharray:none;stroke-opacity:1;paint-order:fill markers stroke"
           d="m 457.58523,321.02271 -3.75854,-0.39772 -0.15907,5.92614 -2.48581,5.70738 c 0,0 -0.35198,1.347 0.85511,1.67044 1.20709,0.32344 1.55114,-1.09373 1.55114,-1.09373 l 2.42615,-5.92614 0.0994,-2.34659 1.21306,2.40626 0.2784,6.34372 c 0,0 0.0233,1.05703 1.25285,1.09377 1.22956,0.0367 1.23296,-1.09377 1.23296,-1.09377 l -0.33808,-6.68181 z"
           id="path13967"
           sodipodi:nodetypes="cccczccccczccc" />
        <circle
           style="fill:#000000;fill-opacity:1;stroke:none;stroke-width:0.341546;stroke-dasharray:none;stroke-opacity:1;paint-order:fill markers stroke"
           id="path13969"
           cx="459.14182"
           cy="311.04196"
           r="1.8152119" />
        <path
           id="path13969-7"
           style="fill:#000000;fill-opacity:1;stroke:none;stroke-width:0.341546;stroke-dasharray:none;stroke-opacity:1;paint-order:fill markers stroke"
           d="m 466.77254,330.42324 a 1.8152119,1.8152119 0 0 0 -1.81487,1.8154 1.8152119,1.8152119 0 0 0 1.81487,1.81539 1.8152119,1.8152119 0 0 0 1.8154,-1.81539 1.8152119,1.8152119 0 0 0 -1.8154,-1.8154 z m -5.1e-4,0.77618 a 1.0396438,1.0396438 0 0 1 1.03973,1.03922 1.0396438,1.0396438 0 0 1 -1.03973,1.03973 1.0396438,1.0396438 0 0 1 -1.03973,-1.03973 1.0396438,1.0396438 0 0 1 1.03973,-1.03922 z" />
        <path
           style="fill:#000000;fill-opacity:1;stroke:none;stroke-width:0.47625;stroke-dasharray:none;stroke-opacity:1;paint-order:fill markers stroke"
           d="m 471.49157,329.51084 -1.15308,1.26555 -8.97141,-7.98708 -0.53436,-0.1125 -0.0843,0.78745 9.64638,8.60581 1.7999,-1.96866 z"
           id="path14133"
           sodipodi:nodetypes="cccccccc" />
        <rect
           style="fill:none;fill-opacity:1;stroke:#000000;stroke-width:0.280505;stroke-dasharray:none;stroke-opacity:1;paint-order:fill markers stroke"
           id="rect14135"
           width="4.7396927"
           height="2.7474802"
           x="71.264877"
           y="567.12225"
           transform="rotate(-47.817796)" />
        <rect
           style="fill:none;fill-opacity:1;stroke:#000000;stroke-width:0.280505;stroke-dasharray:none;stroke-opacity:1;paint-order:fill markers stroke"
           id="rect14135-8"
           width="4.7396927"
           height="2.7474802"
           x="71.264969"
           y="563.39471"
           transform="rotate(-47.817796)" />
        <rect
           style="fill:none;fill-opacity:1;stroke:#000000;stroke-width:0.280505;stroke-dasharray:none;stroke-opacity:1;paint-order:fill markers stroke"
           id="rect14135-0"
           width="4.7396927"
           height="2.7474802"
           x="71.264969"
           y="559.66669"
           transform="rotate(-47.817796)" />
      </g>
    </g>
  </g>
</svg>
