<?xml version="1.0"?>
<svg xmlns="http://www.w3.org/2000/svg" version="1" viewBox="0 0 24 24" enable-background="new 0 0 24 24">
    <path style="fill:#004eff;text-indent:0;text-align:start;line-height:normal;text-transform:none;block-progression:tb;-inkscape-font-specification:Bitstream Vera Sans" d="M 11 2 L 11 4.5625 L 9.71875 3.28125 L 8.28125 4.71875 L 11 7.4375 L 11 10.25 L 8.5625 8.84375 L 7.5625 5.15625 L 5.625 5.65625 L 6.09375 7.4375 L 3.8125 6.125 L 2.8125 7.875 L 5.0625 9.15625 L 3.34375 9.625 L 3.84375 11.5625 L 7.53125 10.59375 L 9.96875 12 L 7.53125 13.40625 L 3.84375 12.4375 L 3.34375 14.375 L 5.0625 14.84375 L 2.8125 16.125 L 3.8125 17.875 L 6.09375 16.5625 L 5.625 18.34375 L 7.5625 18.84375 L 8.5625 15.15625 L 11 13.75 L 11 16.5625 L 8.28125 19.28125 L 9.71875 20.71875 L 11 19.4375 L 11 22 L 13 22 L 13 19.4375 L 14.28125 20.71875 L 15.71875 19.28125 L 13 16.5625 L 13 13.75 L 15.4375 15.15625 L 16.4375 18.84375 L 18.375 18.34375 L 17.90625 16.5625 L 20.1875 17.875 L 21.1875 16.125 L 18.9375 14.84375 L 20.65625 14.375 L 20.15625 12.4375 L 16.46875 13.40625 L 14.03125 12 L 16.46875 10.59375 L 20.15625 11.5625 L 20.65625 9.625 L 18.9375 9.15625 L 21.1875 7.875 L 20.1875 6.125 L 17.90625 7.4375 L 18.375 5.65625 L 16.4375 5.15625 L 15.4375 8.84375 L 13 10.25 L 13 7.4375 L 15.71875 4.71875 L 14.28125 3.28125 L 13 4.5625 L 13 2 L 11 2 z"/>
</svg>
